# xmcd CD database file
#
# Track frame offsets:
#	150
#	14039
#	29174
#	40082
#	53596
#	67869
#	82346
#	99418
#	113498
#	130350
#	148581
#	159284
#	168924
#
# Disc length: 2386 seconds
#
# Revision: 1
# Processed by: cddbd v1.5.2PL0 Copyright (c) Steve Scherf et al.
# Submitted via: CDex 1.51
#
DISCID=a909500d
DTITLE=O.V. Wright - A Nickel And A Nail And Ace Of Spades
DYEAR=2008
DGENRE=Soul
TTITLE0=Don't Let My Baby Ride
TTITLE1=Born All Over
TTITLE2=Ace Of Spade
TTITLE3=Eight Men, Four Women
TTITLE4=He Made Woman For Man
TTITLE5=I Can't Take It
TTITLE6=Afflicted
TTITLE7=When You Took Your Love From Me
TTITLE8=A Nickel And A Nail
TTITLE9=Don't Take It Away
TTITLE10=Ace Of Spades (Alt. Take 1)
TTITLE11=Ace Of Spades (Alt. Take 2)
TTITLE12=Ace Of Spades (Melvin Carter)
EXTD=YEAR: 2008
EXTT0=
EXTT1=
EXTT2=
EXTT3=
EXTT4=
EXTT5=
EXTT6=
EXTT7=
EXTT8=
EXTT9=
EXTT10=
EXTT11=
EXTT12=
PLAYORDER=
